# xmcd CD Database Entry
#
# Track frame offsets:
# 150
# 13929
# 32653
# 50298
# 66905
# 84452
# 101505
# 117378
# 136461
# 150693
# 165507
#
# Disc length: 2449 seconds
#
# Revision: 1
# Processed by: cddbd v1.5.2PL0 Copyright (c) Steve Scherf et al.
# Submitted via: RSJCDWriter_freedb_lib_OS/2 1.03
#
DISCID=8b098f0b
DTITLE=Veronica Ballestrini - What I'm All About
DYEAR=1900
DGENRE=country
TTITLE0=Out There Somewhere
TTITLE1=Amazing
TTITLE2=Pray When It Rains
TTITLE3=Don't Say
TTITLE4=What I'm All About
TTITLE5=Destiny (acoustic)
TTITLE6=Small Town Girl
TTITLE7=Eskimo Kiss
TTITLE8=L A Baby
TTITLE9=Just Fine
TTITLE10=Bullet Life
EXTD=2009/2010
EXTT0=
EXTT1=
EXTT2=
EXTT3=
EXTT4=
EXTT5=
EXTT6=
EXTT7=
EXTT8=
EXTT9=
EXTT10=
PLAYORDER=
